<?xml version="1.0" encoding="utf-8"?>
<!-- Generator: Adobe Illustrator 18.1.1, SVG Export Plug-In . SVG Version: 6.00 Build 0)  -->
<!DOCTYPE svg PUBLIC "-//W3C//DTD SVG 1.1//EN" "http://www.w3.org/Graphics/SVG/1.1/DTD/svg11.dtd">
<svg version="1.1" id="mnemonic" xmlns="http://www.w3.org/2000/svg" xmlns:xlink="http://www.w3.org/1999/xlink" x="0px" y="0px"
	 viewBox="0 0 240 234" enable-background="new 0 0 240 234" xml:space="preserve">
<g>
	<linearGradient id="SVGID_1_" gradientUnits="userSpaceOnUse" x1="120.0002" y1="-7.9937" x2="120.0002" y2="250.7279">
		<stop  offset="0" style="stop-color:#4E0000"/>
		<stop  offset="1" style="stop-color:#440100"/>
	</linearGradient>
	<path fill-rule="evenodd" clip-rule="evenodd" fill="url(#SVGID_1_)" d="M0,0v234h240V0H0z"/>
</g>
<linearGradient id="SVGID_2_" gradientUnits="userSpaceOnUse" x1="120.0002" y1="43.9831" x2="120.0002" y2="190.0173">
	<stop  offset="0" style="stop-color:#FFFFFF"/>
	<stop  offset="1" style="stop-color:#E8E8E8"/>
</linearGradient>
<path fill-rule="evenodd" clip-rule="evenodd" fill="url(#SVGID_2_)" d="M120.1,150.2c-14.4-3.8-22.9-18.6-19.1-33
	c3.9-14.4,18.7-22.9,33-19.1c14.4,3.8,22.9,18.6,19.1,33C149.3,145.5,134.5,154,120.1,150.2z M186.9,145.2c-0.4-0.6-1.1-1.4-1.9-2.2
	c-7.9-8.1-13.8-17.7-17-28.3c-0.2-0.5-0.3-1-0.4-1.5c-0.1-0.5-0.3-1-0.4-1.5c-2.5-10.8-2.2-22,0.6-33c0,0,0.4-1.8,0.5-2.6
	c2.4-13.9-6.2-27.5-20-31.2c-14.1-3.8-28.6,4.1-33.2,17.8c-0.2,0.5-0.6,1.8-0.6,1.8c-3,10.8-8.3,20.5-15.8,28.5
	c-8.5,8.9-19.3,15.1-31.3,18.5l0,0c-14.7,3.9-23.4,19.1-19.5,33.8c3.9,14.7,19,23.4,33.8,19.5c11-2.8,22.2-3.1,33-0.6
	c0.5,0.1,1,0.2,1.5,0.4c0.5,0.1,1,0.3,1.5,0.4c10.6,3.2,20.2,9.1,28.3,17c1,1,1.9,1.7,2.7,2.3c10.9,8.3,26.4,7.7,36.3-2.3
	C195,171.9,195.6,156,186.9,145.2z"/>
</svg>
